<?xml version="1.0" standalone="no"?><!DOCTYPE svg PUBLIC "-//W3C//DTD SVG 1.1//EN" "http://www.w3.org/Graphics/SVG/1.1/DTD/svg11.dtd"><svg t="1624870968804" class="icon" viewBox="0 0 1024 1024" version="1.1" xmlns="http://www.w3.org/2000/svg" p-id="4988" xmlns:xlink="http://www.w3.org/1999/xlink" width="200" height="200"><defs><style type="text/css"></style></defs><path d="M64 104.1c0-1.3 0.5-2.6 1.5-3.6s2.3-1.5 3.6-1.5H101c1.3 0 2.6 0.5 3.6 1.5s1.5 2.3 1.5 3.6V883H955c1.3 0 2.6 0.5 3.6 1.5s1.5 2.3 1.5 3.6V920c0 1.3-0.5 2.6-1.5 3.6s-2.3 1.5-3.6 1.5H64v-821z" p-id="4989"></path><path d="M874.9 449.1c3.9 0 7.7 1.5 10.7 4.4 3 3 4.4 6.8 4.4 10.7v137.7c0 3.9-1.5 7.7-4.4 10.7-3 3-6.8 4.4-10.7 4.4H162V449.1h712.9zM664.9 239.1c3.9 0 7.7 1.5 10.7 4.4 3 3 4.4 6.8 4.4 10.7v137.7c0 3.9-1.5 7.7-4.4 10.7-3 3-6.8 4.4-10.7 4.4H162V239.1h502.9zM454.9 659.1c3.9 0 7.7 1.5 10.7 4.4 3 3 4.4 6.8 4.4 10.7v137.7c0 3.9-1.5 7.7-4.4 10.7-3 3-6.8 4.4-10.7 4.4H162V659.1h292.9z" p-id="4990"></path></svg>