<?xml version="1.0" standalone="no"?><!DOCTYPE svg PUBLIC "-//W3C//DTD SVG 1.1//EN" "http://www.w3.org/Graphics/SVG/1.1/DTD/svg11.dtd"><svg t="1624871149561" class="icon" viewBox="0 0 1024 1024" version="1.1" xmlns="http://www.w3.org/2000/svg" p-id="10078" xmlns:xlink="http://www.w3.org/1999/xlink" width="200" height="200"><defs><style type="text/css"></style></defs><path d="M811.84 284.58Q728 69.78 571.72 69.77q-91.89 0-208.81 74.27Q-14.92 160.62 85.46 512-14.92 863.38 362.91 880q116.92 74.26 208.81 74.26 156.28 0 240.11-214.82 295.56-227.44 0.01-454.86z m-12.55 438.53l-4.54 3.49-2.08 5.34c-53 135.74-125.24 201.72-220.94 201.72-57 0-123.54-23.91-197.78-71.06l-4.64-2.95-5.49-0.24c-120.9-5.31-203.28-37.25-244.82-94.94-40-55.56-44.65-138.6-13.73-246.82l1.61-5.65-1.61-5.65C74.33 398.13 79 315.09 119 259.53c41.56-57.69 123.93-89.63 244.83-94.94l5.49-0.24 4.64-2.95c74.24-47.15 140.78-71.06 197.78-71.06 95.69 0 168 66 220.94 201.72l2.08 5.34 4.54 3.49C892 372.24 939 443.27 939 512s-47 139.75-139.71 211.11z" fill="#979797" p-id="10079"></path><path d="M722.24 353.34q-58.79-149.86-168.37-149.87-64.44 0-146.43 51.81Q142.48 266.85 212.88 512q-70.39 245.15 194.56 256.72 82 51.81 146.43 51.82 109.59 0 168.38-149.87 207.24-158.67-0.01-317.33z m-12.51 301l-4.55 3.49-2.09 5.34C667 755.21 618.16 800 553.87 800c-38.8 0-84.37-16.36-135.43-48.63l-4.63-2.92-5.47-0.24c-83-3.63-139.25-25.14-167.17-64-26.71-37.12-29.57-93.15-8.5-166.53l1.63-5.68-1.63-5.68c-21.07-73.38-18.21-129.41 8.5-166.53 27.93-38.81 84.17-60.33 167.17-64l5.47-0.24 4.63-2.92C469.5 240.41 515.06 224 553.86 224c64.3 0 113.11 44.75 149.22 136.8l2.09 5.34 4.55 3.49c63.41 48.54 95.56 96.43 95.56 142.32s-32.14 93.83-95.55 142.37z" fill="#979797" p-id="10080"></path><path d="M512.48 666.34c-21 0-45.45-8.86-72.8-26.35l-2.36-1.5-2.79-0.11c-44.59-1.68-74.91-13.2-90.11-34.22-14.89-20.59-16.43-51.91-4.57-93.1l0.8-2.79-0.77-2.8c-11.3-40.89-9.39-72.18 5.65-93 15.5-21.47 46.1-33.52 90.94-35.81l2.75-0.14 2.31-1.5c28.06-18.15 53-27.36 74.24-27.36 34.77 0 61 24.59 80.23 75.16l1 2.7 2.28 1.77c34.09 26.48 51.39 52.79 51.43 78.21 0 25.79-17.65 52.71-52.58 80l-2.13 1.75-1 2.63c-20.1 51.45-47.07 76.46-82.44 76.46z" fill="#91AAFF" p-id="10081"></path><path d="M515.78 357.92c11 0 44.58 0 70.61 68.53l2.05 5.4 4.56 3.55c31.45 24.43 47.42 48 47.45 70.1 0 22.45-16.32 46.65-48.63 71.91l-4.44 3.47-2.05 5.25C558 656 523.74 656 512.48 656c-19 0-41.59-8.32-67.25-24.73l-4.71-3-5.59-0.21c-41.26-1.56-68.9-11.65-82.16-30-12.94-17.89-14-46.23-3-84.22l1.61-5.58-1.55-5.6c-10.42-37.73-9-66.08 4.07-84.26 13.55-18.75 41.52-29.4 83.1-31.49l5.51-0.28 4.63-3c26.36-17.06 49.46-25.71 68.65-25.71m0-20.58q-35 0-79.83 29Q292.81 373.67 330 508.2q-38.88 135 104.18 140.46 43.74 28 78.34 28 59.6 0 92-83 112.5-88 1.12-174.48-31.08-81.8-89.85-81.8z" fill="#0839FF" p-id="10082"></path></svg>