<?xml version="1.0" standalone="no"?><!DOCTYPE svg PUBLIC "-//W3C//DTD SVG 1.1//EN" "http://www.w3.org/Graphics/SVG/1.1/DTD/svg11.dtd"><svg t="1624871830373" class="icon" viewBox="0 0 1024 1024" version="1.1" xmlns="http://www.w3.org/2000/svg" p-id="11685" xmlns:xlink="http://www.w3.org/1999/xlink" width="200" height="200"><defs><style type="text/css"></style></defs><path d="M99.57888 147.39456a4.78208 4.78208 0 0 1 4.79744-4.79744h30.36672a4.78208 4.78208 0 0 1 4.79744 4.79744v741.26336h807.8848c1.2288 0 2.4576 0.47104 3.38944 1.408a4.7616 4.7616 0 0 1 1.408 3.38944v30.37184c0 1.2288-0.47104 2.4576-1.408 3.38944a4.75648 4.75648 0 0 1-3.38944 1.408H99.57888V147.39456z" p-id="11686"></path><path d="M192.34816 303.24224c0-3.03616 1.15712-6.07744 3.47648-8.39168a11.81696 11.81696 0 0 1 8.39168-3.47648H312.2176c3.03616 0 6.07232 1.15712 8.38656 3.47648 2.31936 2.31936 3.47648 5.3504 3.47648 8.39168V862.208H192.34816V303.24224zM586.34752 467.90144c0-3.03616 1.16224-6.07744 3.4816-8.39168a11.81184 11.81184 0 0 1 8.39168-3.47648h108.00128a11.8272 11.8272 0 0 1 8.39168 3.47648c2.31424 2.31936 3.47136 5.3504 3.47136 8.39168v394.30144h-131.73248V467.90144zM343.05536 512v350.20288h131.73248V512H343.05536z" p-id="11687"></path><path d="M452.44416 841.09312h-87.04v-306.90816h87.04v306.90816z" fill="#FFFFFF" p-id="11688"></path><path d="M737.29536 659.11808v204.1088h131.73248v-204.1088h-131.73248z" p-id="11689"></path><path d="M846.67904 845.96736h-87.04v-168.96h87.04v168.96z" fill="#FFFFFF" p-id="11690"></path></svg>