<?xml version="1.0" standalone="no"?><!DOCTYPE svg PUBLIC "-//W3C//DTD SVG 1.1//EN" "http://www.w3.org/Graphics/SVG/1.1/DTD/svg11.dtd"><svg t="1624871124763" class="icon" viewBox="0 0 1024 1024" version="1.1" xmlns="http://www.w3.org/2000/svg" p-id="9506" xmlns:xlink="http://www.w3.org/1999/xlink" width="200" height="200"><defs><style type="text/css"></style></defs><path d="M955 99h-32c-2.8 0-5 2.2-5 5v62c-173-7.8-345 33.2-494.3 118.4-36.4 22.1-74.2 42-113.2 59.6-57.6-53.2-127.9-91.5-204.4-112.1V104c0-2.8-2.2-5-5-5H69c-2.8 0-5 2.2-5 5v816c0 2.8 2.2 5 5 5h32c2.8 0 5-2.2 5-5v-64.3c146.4-13.8 288.5-55.9 417.7-123.8 39.1-20.8 79.4-39.5 120.7-56 85.9 41.2 178.4 68.2 273.5 79.9V920c0 2.8 2.2 5 5 5H955c2.8 0 5-2.2 5-5V104c0-2.8-2.2-5-5-5zM106 294.4c51 16.2 98.5 41.9 139.4 75.9C200.1 387 153.5 399.9 106 409V294.4z m327 282c-101.5 52.9-212.5 86.7-327 99.7v-206c66.3-11.7 131.1-30.3 193.2-55.7 20 17.9 40.7 37.5 62.5 59.6 29.6 32.3 61.8 62.4 96.3 90l-25 12.4z m86.4-42.3c-40.2-29.4-77.5-62.3-111.3-98.3-16.3-17.3-31.9-33.4-47.5-47.7 33-15.5 65.1-32.6 96.3-51.3C596.4 258.1 756.7 220.1 918 226.7v208.2c-138.5 6-274.4 39.7-398.6 99.2z m208.8 113.8c61.6-18.9 125.3-30.3 189.7-34v82.5c-65.1-8-128.9-24.3-189.7-48.5z" p-id="9507"></path></svg>