<?xml version="1.0" standalone="no"?><!DOCTYPE svg PUBLIC "-//W3C//DTD SVG 1.1//EN" "http://www.w3.org/Graphics/SVG/1.1/DTD/svg11.dtd"><svg t="1624929489587" class="icon" viewBox="0 0 1024 1024" version="1.1" xmlns="http://www.w3.org/2000/svg" p-id="2564" xmlns:xlink="http://www.w3.org/1999/xlink" width="200" height="200"><defs><style type="text/css"></style></defs><path d="M160 844.8l-25.6-6.4c-6.4 0-12.8-6.4-12.8-6.4l-6.4-6.4c0-6.4 6.4-19.2 25.6-19.2 6.4 0 25.6 0 38.4 12.8l32-32c-19.2-12.8-38.4-19.2-70.4-19.2-44.8 0-70.4 25.6-70.4 57.6 0 19.2 6.4 32 12.8 38.4 6.4 6.4 19.2 12.8 38.4 19.2l25.6 6.4c6.4 0 12.8 0 12.8 6.4 0 0 6.4 6.4 6.4 12.8 0 12.8-6.4 19.2-25.6 19.2-12.8 0-32-6.4-44.8-12.8l-32 25.6c19.2 19.2 44.8 25.6 70.4 25.6 38.4 0 76.8-19.2 76.8-57.6 0-19.2-6.4-32-12.8-44.8-12.8-12.8-25.6-19.2-38.4-19.2zM384 864c0-25.6 0-57.6-19.2-76.8-19.2-12.8-32-19.2-57.6-19.2s-38.4 6.4-51.2 19.2c-19.2 19.2-19.2 44.8-19.2 76.8s0 57.6 19.2 76.8c12.8 12.8 32 19.2 51.2 19.2 12.8 0 25.6 0 38.4-6.4l19.2 19.2 25.6-25.6-19.2-19.2c12.8-12.8 12.8-38.4 12.8-64z m-51.2 32c0 25.6-19.2 25.6-19.2 25.6h-6.4c-6.4 0-12.8-6.4-19.2-6.4-6.4-6.4-6.4-12.8-6.4-44.8 0-32 0-38.4 6.4-44.8 6.4-6.4 12.8-6.4 19.2-6.4s12.8 6.4 19.2 6.4c6.4 6.4 6.4 12.8 6.4 44.8v25.6zM460.8 768h-44.8v192h128v-38.4H460.8z" p-id="2565"></path><path d="M947.2 857.6L793.6 704c-12.8-12.8-25.6-19.2-38.4-19.2L640 576c38.4-51.2 64-115.2 64-192 0-179.2-140.8-320-320-320S64 204.8 64 384s140.8 320 320 320c70.4 0 134.4-25.6 192-64l108.8 108.8c0 12.8 6.4 32 19.2 38.4l153.6 153.6c12.8 12.8 32 19.2 44.8 19.2s32-6.4 44.8-19.2c25.6-19.2 25.6-57.6 0-83.2zM160 384c0-121.6 102.4-224 224-224S608 262.4 608 384 505.6 608 384 608 160 505.6 160 384z" p-id="2566"></path></svg>