<?xml version="1.0" encoding="utf-8"?>
<svg version="1.1" xmlns:xlink="http://www.w3.org/1999/xlink" width="28px" height="30px" xmlns="http://www.w3.org/2000/svg">
  <g transform="matrix(1 0 0 1 -1246 -294 )">
    <path d="M 14 28.6607142857143  C 14.1794871794872 28.6607142857143  14.2692307692308 28.5714285714286  14.2692307692308 28.3928571428571  C 14.2692307692308 28.2142857142857  14.1794871794872 28.125  14 28.125  C 13.338141025641 28.125  12.7688301282051 27.8878348214286  12.2920673076923 27.4135044642857  C 11.8153044871795 26.9391741071429  11.5769230769231 26.3727678571429  11.5769230769231 25.7142857142857  C 11.5769230769231 25.5357142857143  11.4871794871795 25.4464285714286  11.3076923076923 25.4464285714286  C 11.1282051282051 25.4464285714286  11.0384615384615 25.5357142857143  11.0384615384615 25.7142857142857  C 11.0384615384615 26.5290178571429  11.3273237179487 27.2237723214286  11.9050480769231 27.7985491071429  C 12.4827724358974 28.3733258928571  13.1810897435897 28.6607142857143  14 28.6607142857143  Z M 7.53846153846154 9.64285714285714  C 7.53846153846154 15.5803571428571  6.04647435897436 20.2232142857143  3.0625 23  L 24.9375 23  C 21.9535256410256 20.2232142857143  20.4615384615385 15.5803571428571  20.4615384615385 9.64285714285714  C 20.4615384615385 9.07366071428571  20.3269230769231 8.48772321428571  20.0576923076923 7.88504464285714  C 19.7884615384615 7.28236607142857  19.4014423076923 6.70758928571428  18.8966346153846 6.16071428571429  C 18.3918269230769 5.61383928571428  17.7103365384615 5.16462053571429  16.8521634615385 4.81305803571429  C 15.9939903846154 4.46149553571429  15.0432692307692 4.28571428571429  14 4.28571428571429  C 12.9567307692308 4.28571428571429  12.0060096153846 4.46149553571429  11.1478365384615 4.81305803571429  C 10.2896634615385 5.16462053571429  9.60817307692308 5.61383928571428  9.10336538461538 6.16071428571429  C 8.59855769230769 6.70758928571428  8.21153846153846 7.28236607142857  7.94230769230769 7.88504464285714  C 7.67307692307692 8.48772321428571  7.53846153846154 9.07366071428571  7.53846153846154 9.64285714285714  Z M 26.46875 22.0982142857143  C 26.9286858974359 22.6116071428571  27.4391025641026 23.1026785714286  28 23.5714285714286  C 28 24.1517857142857  27.786858974359 24.6540178571429  27.3605769230769 25.078125  C 26.9342948717949 25.5022321428571  26.4294871794872 25.7142857142857  25.8461538461538 25.7142857142857  L 18.3076923076923 25.7142857142857  C 18.3076923076923 26.8973214285714  17.8870192307692 27.9073660714286  17.0456730769231 28.7444196428571  C 16.2043269230769 29.5814732142857  15.1891025641026 30  14 30  C 12.8108974358974 30  11.7956730769231 29.5814732142857  10.9543269230769 28.7444196428571  C 10.1129807692308 27.9073660714286  9.69230769230769 26.8973214285714  9.69230769230769 25.7142857142857  L 2.15384615384615 25.7142857142857  C 1.57051282051282 25.7142857142857  1.06570512820513 25.5022321428571  0.639423076923077 25.078125  C 0.213141025641026 24.6540178571429  0 24.1517857142857  0 23.5714285714286  C 0.560897435897436 23.1026785714286  1.0713141025641 22.6116071428571  1.53125 22.0982142857143  C 1.9911858974359 21.5848214285714  2.46794871794872 20.91796875  2.96153846153846 20.09765625  C 3.45512820512821 19.27734375  3.8729967948718 18.3928571428571  4.21514423076923 17.4441964285714  C 4.55729166666667 16.4955357142857  4.83774038461539 15.3459821428571  5.05649038461539 13.9955357142857  C 5.27524038461539 12.6450892857143  5.38461538461539 11.1941964285714  5.38461538461539 9.64285714285714  C 5.38461538461539 7.94642857142857  6.04086538461539 6.36997767857143  7.35336538461538 4.91350446428571  C 8.66586538461538 3.45703125  10.3878205128205 2.57254464285714  12.5192307692308 2.26004464285714  C 12.4294871794872 2.04799107142857  12.3846153846154 1.83035714285714  12.3846153846154 1.60714285714286  C 12.3846153846154 1.16071428571428  12.5416666666667 0.781249999999999  12.8557692307692 0.46875  C 13.1698717948718 0.156250000000001  13.5512820512821 0  14 0  C 14.448717948718 0  14.8301282051282 0.156250000000001  15.1442307692308 0.46875  C 15.4583333333333 0.781249999999999  15.6153846153846 1.16071428571428  15.6153846153846 1.60714285714286  C 15.6153846153846 1.83035714285714  15.5705128205128 2.04799107142857  15.4807692307692 2.26004464285714  C 17.6121794871795 2.57254464285714  19.3341346153846 3.45703125  20.6466346153846 4.91350446428571  C 21.9591346153846 6.36997767857143  22.6153846153846 7.94642857142857  22.6153846153846 9.64285714285714  C 22.6153846153846 11.1941964285714  22.7247596153846 12.6450892857143  22.9435096153846 13.9955357142857  C 23.1622596153846 15.3459821428571  23.4427083333333 16.4955357142857  23.7848557692308 17.4441964285714  C 24.1270032051282 18.3928571428571  24.5448717948718 19.27734375  25.0384615384615 20.09765625  C 25.5320512820513 20.91796875  26.0088141025641 21.5848214285714  26.46875 22.0982142857143  Z " fill-rule="nonzero" fill="#65c33c" stroke="none" transform="matrix(1 0 0 1 1246 294 )" />
  </g>
</svg>